<?xml version="1.0" standalone="no"?>
<!DOCTYPE svg PUBLIC "-//W3C//DTD SVG 20010904//EN"
 "http://www.w3.org/TR/2001/REC-SVG-20010904/DTD/svg10.dtd">
<svg version="1.0"  xmlns="http://www.w3.org/2000/svg"
 width="333.000000pt" height="359.000000pt" viewBox="0 0 333.000000 359.000000"
 preserveAspectRatio="xMidYMid meet">

<g transform="translate(0.000000,359.000000) scale(0.100000,-0.100000)"
fill="#000000" stroke="none">
<path fill="white" d="M1683 2971 c-135 -46 -213 -151 -213 -283 0 -84 31 -149 99 -210 128
-116 329 -110 451 12 59 59 82 116 82 202 0 58 -5 81 -29 126 -70 139 -240
205 -390 153z"/>
<path fill="white" d="M1310 2097 c-47 -12 -133 -40 -192 -62 l-107 -40 -17 -68 c-9 -37
-15 -70 -12 -72 2 -2 32 5 67 15 86 27 204 27 249 0 42 -26 54 -59 54 -146 -1
-83 -18 -159 -107 -475 -81 -285 -95 -355 -95 -472 0 -76 4 -101 24 -144 66
-142 212 -211 421 -200 106 6 172 23 341 88 l100 39 16 67 c9 38 15 69 13 71
-2 2 -28 -4 -57 -14 -63 -22 -208 -25 -254 -6 -48 20 -67 64 -66 146 1 91 15
155 107 481 84 299 95 354 95 471 0 103 -20 160 -77 224 -78 86 -169 120 -323
119 -64 0 -122 -7 -180 -22z"/>
</g>
</svg>
